
<svg  xmlns="http://www.w3.org/2000/svg"  viewBox="0 0 6.5 4.8" >
<style type="text/css">
	.st0{fill:#FFFFFF;}
</style>
<g>
	<path class="st0" d="M4.2,2.1L2.8,1.4c-0.1,0-0.2,0-0.3,0c-0.1,0-0.1,0.1-0.1,0.2v1.5c0,0.1,0,0.2,0.1,0.2c0,0,0.1,0,0.1,0
		c0,0,0.1,0,0.1,0l1.4-0.8c0.1,0,0.1-0.1,0.1-0.2C4.4,2.3,4.3,2.2,4.2,2.1z M2.8,2.9V1.8l1,0.6L2.8,2.9z"/>
	<path class="st0" d="M6.4,1.2L6.4,1.2c0-0.1-0.1-0.5-0.3-0.7C5.8,0.2,5.6,0.1,5.4,0.1c0,0,0,0,0,0l0,0C4.5,0,3.3,0,3.3,0l0,0l0,0
		c0,0-1.3,0-2.1,0.1l0,0c0,0,0,0,0,0c-0.1,0-0.4,0-0.7,0.3C0.2,0.7,0.1,1.1,0.1,1.2l0,0c0,0,0,0.5,0,1v0.5c0,0.5,0,1,0,1l0,0
		c0,0.1,0.1,0.5,0.3,0.7C0.7,4.7,1,4.7,1.1,4.7c0,0,0,0,0.1,0l0,0c0.5,0,2,0.1,2.1,0.1l0,0l0,0c0,0,1.3,0,2.1-0.1l0,0c0,0,0,0,0,0
		c0.1,0,0.4,0,0.7-0.3c0.2-0.2,0.3-0.7,0.3-0.7l0,0c0,0,0-0.5,0-1V2.2C6.4,1.7,6.4,1.2,6.4,1.2z M6,2.7c0,0.5,0,1,0,1
		c0,0.1-0.1,0.4-0.2,0.5C5.7,4.3,5.5,4.4,5.4,4.4c0,0,0,0,0,0c-0.8,0.1-2,0.1-2.1,0.1c-0.1,0-1.6,0-2-0.1c0,0,0,0-0.1,0
		c-0.1,0-0.3,0-0.5-0.2l0,0C0.6,4.1,0.5,3.8,0.5,3.7c0,0,0-0.5,0-1V2.2c0-0.5,0-1,0-1c0-0.1,0.1-0.4,0.2-0.5C0.9,0.5,1,0.5,1.1,0.5
		c0,0,0,0,0,0c0.8-0.1,2-0.1,2.1-0.1c0,0,1.3,0,2.1,0.1c0,0,0,0,0,0c0.1,0,0.3,0,0.5,0.2l0,0C5.9,0.8,6,1,6,1.2c0,0,0,0.5,0,1V2.7z"
		/>
</g>
</svg>
