<svg id="레이어_1" data-name="레이어 1" xmlns="http://www.w3.org/2000/svg" viewBox="0 0 566.93 566.93"><defs><style>.cls-1{fill:#fff;}</style></defs><title>떡잎로고svg(흰색)</title><path class="cls-1" d="M350.69,199.55c-5.69-6.74-13.16-9.81-21.31-13.14,5.38-5.1,11.5-8.68,16.75-13.26,7.44-6.48,14.54-6.39,22.35-1.15a60,60,0,0,0,10.64,5.47c-4.54-6.22-11.36-9.19-18.93-12.56a149,149,0,0,1,24.56-11.78c1.66-.63,3.22.62,4.75,1.19,6.51,2.43,12.36,6.24,18.68,9.17-4.27-6.22-11-8.88-18.09-12.49,12.43-5.21,24.71-8.43,38.11-11.51-4-1.23-6.89-.11-9.78.27s-5.93.87-8.85,1.49a97.38,97.38,0,0,0-18.64,5.49c-4.5,2-6,.2-6.57-3.85-.25-1.78-.46-3.57-.8-6.33-2.14,3.66-1.22,6.62-.74,9.4.51,3-.86,4-3.3,5.07-6.24,2.74-12.38,5.74-18.48,8.79-4.9,2.45-5.09,2.41-5.87-3.25-.18-1.3-.28-2.62-.48-4.62-2.05,2.31-1.69,4.52-1.2,6.4,1.07,4.12-.64,6.21-4.1,8.3-6.26,3.77-12.12,8.21-18.18,12.33-1.29.88-2.36,2.89-4.07,2.15-1.47-.64-.88-2.68-1.1-4.13-.13-.81-.23-1.62-.36-2.51a2.28,2.28,0,0,0-1.37,3c1.59,5.62-1.58,8.73-5.45,12-7.72,6.59-14.41,14.25-21.19,22.38-2.59-6-1.68-11.42.12-16.78,3.53-10.47,9.8-19.35,17.3-27.22C339.77,142,369,123.59,404.25,115.67c14.59-3.28,29.12-3.23,43.39,1.31,15.27,4.85,19.75,14.59,13.9,29.42-4.34,11-11.79,19.7-22.49,24.43-29,12.82-56,29.23-83.41,45.07-10.7,6.19-22.34,10.41-34.9,11.25-7.32.48-13.88-1.18-18.9-7-1.59-1.85-2.23-3.34-.29-5.56,7.23-8.3,14.78-16.29,22.76-23.87,1.71-1.61,3.22-1.75,5.37-.89a120.32,120.32,0,0,1,15.69,7.65C346.86,198.32,348.16,199.78,350.69,199.55Z"/><path class="cls-1" d="M272.5,209c-6-3.39-11.74-6.37-17.19-9.81-3.18-2-2.75-5.86-3.08-9.08-.3-3-.06-6.1-.06-10.22-3.67,5.31-3.44,10.27-3.23,15.93-2.93-1.22-5.44-2.2-7.9-3.3a124.8,124.8,0,0,0-20.57-7.59c-3.61-.9-5.22-2.6-5.89-6.21-.78-4.25.08-8.52-.57-13.72-3.84,5.95-3.43,11.61-2.59,17.53-19.18-2.86-37.89-2.93-56.27,2.93,16.86-1.12,33.7-2.46,51.29.1-4.83,3.86-9.88,6.83-11.68,13.08,2-1.5,3.88-3,5.85-4.5,7.61-5.68,15.37-8.51,24.82-3.62,6.85,3.54,14.34,5.85,22.3,9-6.84,3.4-12.53,7-16,14.61,5.62-3.57,9.68-7.45,14.83-9.68,4.39-1.91,8.36-2.61,12.46.65a87.38,87.38,0,0,0,9.44,6.51c4,2.39,3,4.74.43,7.43-6.38,6.6-14.62,8.31-23.25,8.6-9.74.31-19.16-1.79-28.5-4.38-13-3.59-25.82-7.71-39.17-9.75-9.6-1.46-19.29-.29-28.93-.56-10.7-.29-21.3-1.07-31.51-4.44-6.08-2-11.85-4.74-14.81-11-3.18-6.74-1.35-14,5.16-19.69,7.53-6.54,16.54-10.59,25.7-14.11,33.75-13,67.58-15.67,101.21.41,14.71,7,27.53,16.3,34.73,31.62C271.4,199.76,272.8,203.94,272.5,209Z"/><path class="cls-1" d="M274,427.25c-.07-35.73-4.81-71-10.16-106.24-3.23-21.26-5.46-42.62-1.87-64.12,2.13-12.81,6.92-24.32,16.43-33.45,2.05-2,4.95-5.42,7.42-3.61,3,2.22-.25,5.4-1.71,7.8-8.24,13.49-11.16,28.32-11.54,43.9-.52,21.78,2.9,43.13,6.73,64.44,5.25,29.32,11.62,58.46,14.08,88.22.62,7.47,1,15,1.24,22.44.16,4.7-5.45,9.95-10.41,10.07-5.2.13-10.22-4.77-10.22-10Q274,437,274,427.25Z"/></svg>