<svg id="레이어_1" data-name="레이어 1" xmlns="http://www.w3.org/2000/svg" viewBox="0 0 1250.93 566.93"><defs><style>.cls-1{fill:#fff;}</style></defs><title>로고svg(흰색)</title><path class="cls-1" d="M892.7,432.27c-7.89,4.87-15.3,9.28-22.54,14A101.53,101.53,0,0,1,819,462.68c-10.39.48-21.09,1.12-31.2-.75C772.07,459,762.47,447.45,756,433.46c-8.38-18.14-6.29-37-1.18-55.25a133.74,133.74,0,0,1,28.44-52.77c19-21.51,47.29-27.56,73.57-16.07,13.45,5.87,24.95,14.5,36.25,25.07,1.88-7.79,3.72-15.08,5.4-22.39q9.57-41.81,19-83.62c2-8.73,4.29-17.42,5.53-26.25.47-3.4-1.4-7.24-2.64-10.72-1.1-3.11-3-5.93-4.22-9-5.63-14.18,12.28-31.35,27.92-28.07s25.63,13,28.43,31.82c1.42,9.6.53,20-1.61,29.59-6.18,27.56-14.2,54.71-20.18,82.31-3.83,17.66-5.6,35.8-7.77,53.78-1.75,14.51-3.14,29.09-4,43.68-1.47,26.53,5.15,51,19.29,73.62,6.55,10.45,5,15.11-5.92,21.23-5.79,3.26-11.49,6.65-18.58,6.52A15.88,15.88,0,0,1,922,491.7c-10.84-11.23-16.2-25.43-21.82-39.49C897.55,445.74,895.26,439.16,892.7,432.27ZM827,431.17c8.1-.12,20.37-4,31.59-10.88,7.69-4.74,12-12.08,14.37-20.79,2.93-10.64,1.39-21.21-.26-31.63-1.18-7.52-4.32-14.55-10.41-19.94-8.11-7.18-22.12-9.94-30.12-4.87-8.52,5.4-16.08,12.1-20.28,21.5-6.43,14.4-10.14,29.55-9.84,45.41C802.34,424.75,808.41,431,827,431.17Z"/><path class="cls-1" d="M405.9,377.46c-.62-26.1,2.47-48.5,5.55-70.93,2.95-21.47,6.85-42.66,13.75-63.25,4.6-13.72,5.43-28,5.95-42.34.33-8.78,1.1-17.57,2.18-26.29.27-2.15,2.15-4.55,4-6a28.79,28.79,0,0,1,26.34-5.33,15.75,15.75,0,0,1,11.15,11.86c2.91,11.77,5.71,23.58,7.89,35.49a234.81,234.81,0,0,1,3.12,26.72c1.2,18.05-3.31,35.44-7.78,52.6-10.73,41.22-16.32,82.91-14,125.52a55.91,55.91,0,0,0,1.77,10.82c1.33,5.11,4.43,7,9.65,6.5,33.6-3.45,67.19-7,100.81-10.31a90.82,90.82,0,0,1,19.43-.12c8.51,1,12,9.48,6.5,16.29a20.45,20.45,0,0,1-11,6.69c-16.78,3.38-33.73,5.85-50.59,8.87-25.52,4.57-51,9.62-76.55,13.83-9.8,1.61-20.1,2.18-29.53-2C423,461,415.8,451.59,413.2,439.39,408.62,417.89,404.76,396.24,405.9,377.46Z"/><path class="cls-1" d="M1126.89,262.74c6.3.46,12.61.76,18.89,1.43,11.5,1.22,20.66,7.13,28.32,15.34,2.27,2.43,3.7,5.94,4.69,9.21,2.57,8.44-.51,17.06-6.56,19.63-7.25,3.07-18-.74-22-8.17-2.83-5.31-7.17-8-12.8-9.37-16.77-4.12-33.14-2-49.06,3.66a110.58,110.58,0,0,0-23.34,11c-10.16,6.62-9.65,15.21.81,21.42,8.69,5.17,18.16,9.05,26.71,14.41,14.07,8.8,27.92,18,41.38,27.71,6.9,5,12.6,11.68,14.74,20.26,3.63,14.5-1.18,27.42-10.63,37.83-10.93,12-23.06,23.05-35.33,33.76-14,12.26-28.78,23.71-45.68,32-6.11,3-12.2,6.11-18.52,8.61-7.9,3.11-19.18.11-24.67-6.57-5.82-7.08-6.93-15.48-2.62-23.34a52.63,52.63,0,0,1,12.69-15c5.86-4.8,13.05-7.93,19.41-12.17,11.33-7.54,22.81-14.93,33.51-23.29,5-3.88,8.71-9.6,12.15-15,4.24-6.7,3.68-10.77-1.75-16.63-9.73-10.5-21.65-18.08-34.23-24.73-8.21-4.34-16.43-8.72-24.35-13.58-12.48-7.66-17.6-14.39-12.94-35a47.29,47.29,0,0,1,17.87-27.5c15.58-12.05,33.71-17.9,52.68-21.25,13.39-2.35,27-3.53,40.49-5.23Z"/><path class="cls-1" d="M675.55,260.91c11.69-.84,24.14,6.78,28,15.86.59,1.37.83,3.06,1.78,4.09,9.37,10.14,7.92,22.05,5.39,33.94-4.06,19-7.71,38.14-13,56.79-3.55,12.53-10.05,24.19-14.52,36.49A347,347,0,0,0,672,444.13c-1.75,7.18,0,8.49,7.12,10.19,8.37,2,9.36,5.87,5.37,13.32-6.78,12.66-28.56,16.83-40.41,11.57-7.84-3.48-12.32-10.43-13.71-19.07a19.5,19.5,0,0,0-.39-3.47c-7.44-20.71-.45-40.32,4.5-60.08,5.64-22.52,14.88-44.22,16.3-67.71.7-11.61.06-23.31.52-34.95a53.33,53.33,0,0,1,2.63-15.12C657.69,267.82,663.84,259.27,675.55,260.91Z"/><path class="cls-1" d="M266.49,208c9.28-6.41,17.79-12.43,26.52-18.13,1.14-.75,3.57-.27,5.06.42,6.43,3,12.72,6.2,19.07,9.35l.8-1.29-19.4-12.24c7.94-3.67,15.68-7.38,23.55-10.76,1.25-.54,3.31.1,4.72.76,6.46,3,12.82,6.23,19.22,9.37l.8-1.14-18.56-12.06,38.19-11.45c-15.23.57-28.5,4.54-42.55,9.49-.88-3.76-1.68-7.19-2.49-10.62l-.69-.09a64.94,64.94,0,0,0,.08,8.14c.35,2.77-.46,4.07-3.1,5.21-7.62,3.29-15,7-23.22,10.85l-2.06-9.26-1,0c0,1.86-.42,3.83.08,5.55,1.25,4.4-.77,6.46-4.34,8.65-7.47,4.58-14.57,9.76-22.26,15l-1.26-7-.76-.16c-.19,1.57-.88,3.27-.49,4.68,1.09,3.9-.76,6.09-3.52,8.4-8.45,7.06-16.7,14.35-24.52,22.06-.6-2.78-.89-6.33.85-12.52,3.24-11.54,10.05-21.06,18.13-29.54,24.58-25.77,53.65-44.07,88.76-52,14.76-3.33,29.45-3.3,43.88,1.33,14.92,4.79,19.35,14.53,13.67,29.17-4.28,11-11.7,19.79-22.38,24.52-29.18,12.89-56.33,29.41-83.86,45.31-10.7,6.18-22.37,10.36-34.94,11.12-6.93.41-13.18-1.18-18.15-6.5-2.16-2.32-2.73-4.16-.21-6.72q10.86-11.05,21.34-22.46c2.36-2.57,4.65-2.68,7.5-1.24,6.34,3.18,12.71,6.3,19.24,9.16C282.91,214.73,275.31,211.68,266.49,208Z"/><path class="cls-1" d="M210.07,230.76c-5.61-3.17-11.53-5.94-16.69-9.73-1.95-1.43-2.61-5.16-3-8-.5-3.23-.12-6.6-.12-9.9l-1.44-.28c-.87,4.71-1.73,9.43-2.68,14.61-3.78-1.6-7.92-3.49-12.15-5.11a147.81,147.81,0,0,0-15.51-5.44c-3.63-.94-5.56-2.62-5.76-6.28-.23-4.23-.44-8.45-.66-12.68l-1.57-.17c-.65,5.34-1.3,10.68-2,16.51-18-2.51-36.86-2.87-55.58,2.72h49.75l-11.85,11.38,2,2.26c1.82-1.42,3.62-2.87,5.46-4.26,7.69-5.84,15.55-8.9,25.22-3.88,6.83,3.54,14.31,5.83,22.26,9-6.95,3.32-12.39,7.12-15.86,13.85,6.06-3.49,11.52-6.72,17.07-9.8a7.36,7.36,0,0,1,8.36.56c4.76,3.32,9.61,6.49,14.6,9.85-3,6.87-8.32,10-14.52,11.82-12.47,3.69-24.72,1.4-36.92-1.66-14.18-3.56-28.21-8.06-42.59-10.36-11.06-1.77-22.6-.33-33.87-1.14-8.58-.61-17.09-2.33-25.56-4a26.74,26.74,0,0,1-8.22-3.49c-10.73-6.28-12.63-18.9-2.88-26.53A105.87,105.87,0,0,1,71.21,186c33.75-13.48,67.8-16,101.61.11,14.71,7,27.6,16.28,34.66,31.66,1.76,3.85,2.55,8.13,3.78,12.22Z"/><path class="cls-1" d="M668.63,179c14.77.81,27.89,1.48,41,2.3a30.28,30.28,0,0,1,6.79,1.52c9.3,2.82,11.12,5.5,10.5,15.2-.52,8.05-3,10.28-11.21,10.78-13.44.83-27,1.26-40.26,3.09-7.9,1.09-15.61,4.16-23.14,7-11.4,4.34-22.94,5.68-34.57,2-8.77-2.76-12.27-8.08-12.24-16.1,0-8.86,4.71-16.88,12.66-19.07a209.09,209.09,0,0,1,27.68-5.36C653.92,179.31,662.12,179.33,668.63,179Z"/><path class="cls-1" d="M224.74,241.62c-.32,1.75-.13,3.85-1,5.22-14.83,22.54-15.17,47.71-11.82,72.87,4.15,31.15,10.54,62,15.14,93.1,2.7,18.24,3.91,36.72,5.54,55.11.48,5.39-5.3,10.84-10.65,10.77A10.31,10.31,0,0,1,212,468c1.25-42-3.73-83.39-10.13-124.74-3.32-21.42-5.54-43-1.88-64.61,2.1-12.43,6.71-23.7,15.9-32.65,2.15-2.09,4.93-3.52,7.42-5.25Z"/></svg>